<svg xmlns="http://www.w3.org/2000/svg" viewBox="0 -256 1800 1800">
  <path fill="#fff" d="M519.593 1081.356v192q0 40-28 68t-68 28h-320q-40 0-68-28t-28-68v-192q0-40 28-68t68-28h320q40 0 68 28t28 68zm0-512v192q0 40-28 68t-68 28h-320q-40 0-68-28t-28-68v-192q0-40 28-68t68-28h320q40 0 68 28t28 68zm1280 512v192q0 40-28 68t-68 28h-960q-40 0-68-28t-28-68v-192q0-40 28-68t68-28h960q40 0 68 28t28 68zm-1280-1024v192q0 40-28 68t-68 28h-320q-40 0-68-28t-28-68v-192q0-40 28-68t68-28h320q40 0 68 28t28 68zm1280 512v192q0 40-28 68t-68 28h-960q-40 0-68-28t-28-68v-192q0-40 28-68t68-28h960q40 0 68 28t28 68zm0-512v192q0 40-28 68t-68 28h-960q-40 0-68-28t-28-68v-192q0-40 28-68t68-28h960q40 0 68 28t28 68z" />
</svg>
