<svg xmlns="http://www.w3.org/2000/svg" viewBox="0 0 1000 1000">
  <path fill="#fff" d="M61.6 10h154.7c28.5 0 51.6 23.1 51.6 51.6v154.8c0 28.5-23.1 51.6-51.6 51.6H61.6C33.1 268 10 244.9 10 216.4V61.6C10 33.1 33.1 10 61.6 10zM422.6 10h154.7c28.5 0 51.6 23.1 51.6 51.6v154.8c0 28.5-23.1 51.6-51.6 51.6H422.6c-28.5 0-51.6-23.1-51.6-51.6V61.6c.1-28.5 23.2-51.6 51.6-51.6zM783.7 10h154.7c28.5 0 51.6 23.1 51.6 51.6v154.8c0 28.5-23.1 51.6-51.6 51.6H783.7c-28.5 0-51.6-23.1-51.6-51.6V61.6c0-28.5 23.1-51.6 51.6-51.6zM783.7 371.1h154.7c28.5 0 51.6 23.1 51.6 51.6v154.7c0 28.5-23.1 51.6-51.6 51.6H783.7c-28.5 0-51.6-23.1-51.6-51.6V422.6c0-28.5 23.1-51.5 51.6-51.5zM422.6 371.1h154.7c28.5 0 51.6 23.1 51.6 51.6v154.7c0 28.5-23.1 51.6-51.6 51.6H422.6c-28.5 0-51.6-23.1-51.6-51.6V422.6c.1-28.5 23.2-51.5 51.6-51.5zM61.6 371.1h154.7c28.5 0 51.6 23.1 51.6 51.6v154.7c0 28.5-23.1 51.6-51.6 51.6H61.6C33.1 629 10 605.9 10 577.4V422.6c0-28.5 23.1-51.5 51.6-51.5zM61.6 732.1h154.7c28.5 0 51.6 23.1 51.6 51.6v154.7c0 28.4-23.1 51.6-51.6 51.6H61.6C33.1 990 10 966.9 10 938.4V783.7c0-28.5 23.1-51.6 51.6-51.6zM422.6 732.1h154.7c28.5 0 51.6 23.1 51.6 51.6v154.7c0 28.4-23.1 51.6-51.6 51.6H422.6c-28.5 0-51.6-23.1-51.6-51.6V783.7c.1-28.5 23.2-51.6 51.6-51.6zM783.7 732.1h154.7c28.5 0 51.6 23.1 51.6 51.6v154.7c0 28.4-23.1 51.6-51.6 51.6H783.7c-28.5 0-51.6-23.1-51.6-51.6V783.7c0-28.5 23.1-51.6 51.6-51.6z"/>
</svg>
